<svg width="1288" height="288" viewBox="0 0 1288 288" fill="none" xmlns="http://www.w3.org/2000/svg">
<path fill-rule="evenodd" clip-rule="evenodd" d="M320 160C320 211.877 295.311 257.987 257.042 287.223C244.272 249.402 210.013 221.477 168.79 217.972V124.565C182.391 130.655 198.093 132.282 213.609 128.125C237.635 121.687 255.115 103.013 261.139 80.6039L261.543 80.4958C245.121 64.1013 220.646 56.6687 196.62 63.1065C172.594 69.5442 155.115 88.2184 149.09 110.627L148.686 110.736C148.985 111.034 149.286 111.329 149.59 111.621V160.668C147.072 151.182 142.093 142.214 134.653 134.774C119.578 119.699 98.2243 114.727 79.008 119.859L78.7548 119.605C73.623 138.822 78.595 160.175 93.6706 175.25C108.746 190.326 130.099 195.298 149.316 190.166L149.569 190.42L149.59 190.34V218.123C109.092 222.211 75.5604 249.899 62.9582 287.223C24.689 257.987 0 211.877 0 160C0 71.6344 71.6344 0 160 0C248.366 0 320 71.6344 320 160ZM106.88 164.982C100.18 158.282 97.9703 148.791 100.251 140.251L100.364 140.363C108.904 138.083 118.395 140.292 125.095 146.993C131.795 153.693 134.005 163.183 131.724 171.724L131.611 171.611C123.071 173.892 113.581 171.682 106.88 164.982ZM183.1 102.023C185.682 92.419 193.173 84.4158 203.47 81.6568C213.767 78.8978 224.256 82.0831 231.294 89.1093L231.121 89.1557C228.539 98.7595 221.048 106.763 210.751 109.522C200.454 112.281 189.965 109.095 182.927 102.069L183.1 102.023Z" fill="#6BC598"/>
<path d="M478.72 209.96C472.971 209.96 467.221 209.503 461.472 208.588C455.723 207.804 450.3 206.563 445.204 204.864C440.108 203.035 435.535 200.813 431.484 198.2C429.132 196.632 427.499 194.737 426.584 192.516C425.669 190.295 425.343 188.139 425.604 186.048C425.996 183.827 426.845 181.932 428.152 180.364C429.589 178.665 431.353 177.62 433.444 177.228C435.535 176.836 437.821 177.424 440.304 178.992C446.053 182.389 452.129 184.872 458.532 186.44C464.935 188.008 471.664 188.792 478.72 188.792C489.043 188.792 496.556 187.093 501.26 183.696C505.964 180.168 508.316 175.66 508.316 170.172C508.316 165.599 506.617 162.005 503.22 159.392C499.953 156.779 494.269 154.623 486.168 152.924L464.608 148.416C452.195 145.803 442.917 141.425 436.776 135.284C430.765 129.012 427.76 120.78 427.76 110.588C427.76 104.185 429.067 98.3707 431.68 93.144C434.293 87.9173 437.952 83.4093 442.656 79.62C447.491 75.8307 453.175 72.956 459.708 70.996C466.372 68.9053 473.689 67.86 481.66 67.86C489.5 67.86 496.948 68.84 504.004 70.8C511.06 72.76 517.397 75.6347 523.016 79.424C525.107 80.8613 526.479 82.6253 527.132 84.716C527.916 86.8067 528.112 88.8973 527.72 90.988C527.328 92.948 526.413 94.6467 524.976 96.084C523.539 97.5213 521.709 98.3707 519.488 98.632C517.397 98.8933 514.98 98.24 512.236 96.672C507.401 93.928 502.501 91.968 497.536 90.792C492.571 89.616 487.213 89.028 481.464 89.028C475.453 89.028 470.292 89.8773 465.98 91.576C461.668 93.2747 458.336 95.692 455.984 98.828C453.763 101.833 452.652 105.427 452.652 109.608C452.652 114.312 454.22 118.101 457.356 120.976C460.492 123.72 465.849 125.876 473.428 127.444L494.792 131.952C507.728 134.696 517.332 139.008 523.604 144.888C530.007 150.768 533.208 158.608 533.208 168.408C533.208 174.68 531.901 180.364 529.288 185.46C526.805 190.556 523.147 194.933 518.312 198.592C513.608 202.251 507.924 205.06 501.26 207.02C494.596 208.98 487.083 209.96 478.72 209.96ZM564.54 244.848C560.62 244.848 557.615 243.803 555.524 241.712C553.434 239.621 552.388 236.551 552.388 232.5V122.936C552.388 118.885 553.434 115.815 555.524 113.724C557.615 111.633 560.555 110.588 564.344 110.588C568.264 110.588 571.27 111.633 573.36 113.724C575.451 115.815 576.496 118.885 576.496 122.936V138.224L574.34 132.344C576.3 125.68 580.286 120.323 586.296 116.272C592.438 112.221 599.559 110.196 607.66 110.196C616.023 110.196 623.34 112.221 629.612 116.272C636.015 120.323 640.98 126.072 644.508 133.52C648.036 140.837 649.8 149.657 649.8 159.98C649.8 170.172 648.036 179.057 644.508 186.636C640.98 194.084 636.08 199.833 629.808 203.884C623.536 207.935 616.154 209.96 607.66 209.96C599.69 209.96 592.699 208 586.688 204.08C580.678 200.029 576.627 194.803 574.536 188.4H576.888V232.5C576.888 236.551 575.778 239.621 573.556 241.712C571.466 243.803 568.46 244.848 564.54 244.848ZM600.8 191.34C605.635 191.34 609.882 190.164 613.54 187.812C617.199 185.46 620.008 181.997 621.968 177.424C624.059 172.72 625.104 166.905 625.104 159.98C625.104 149.527 622.883 141.752 618.44 136.656C613.998 131.429 608.118 128.816 600.8 128.816C595.966 128.816 591.719 129.992 588.06 132.344C584.402 134.565 581.527 138.028 579.436 142.732C577.476 147.305 576.496 153.055 576.496 159.98C576.496 170.303 578.718 178.143 583.16 183.5C587.603 188.727 593.483 191.34 600.8 191.34ZM682.456 209.568C678.405 209.568 675.269 208.523 673.048 206.432C670.957 204.211 669.912 201.075 669.912 197.024V122.936C669.912 118.885 670.957 115.815 673.048 113.724C675.139 111.633 678.079 110.588 681.868 110.588C685.657 110.588 688.597 111.633 690.688 113.724C692.779 115.815 693.824 118.885 693.824 122.936V135.284H691.864C693.693 127.444 697.287 121.499 702.644 117.448C708.001 113.397 715.123 110.98 724.008 110.196C726.752 109.935 728.908 110.653 730.476 112.352C732.175 113.92 733.155 116.403 733.416 119.8C733.677 123.067 732.893 125.745 731.064 127.836C729.365 129.796 726.752 130.972 723.224 131.364L718.912 131.756C710.941 132.54 704.931 135.023 700.88 139.204C696.829 143.255 694.804 149.004 694.804 156.452V197.024C694.804 201.075 693.759 204.211 691.668 206.432C689.577 208.523 686.507 209.568 682.456 209.568ZM788.843 209.96C778.912 209.96 770.288 207.935 762.971 203.884C755.653 199.833 749.969 194.084 745.919 186.636C741.868 179.057 739.843 170.172 739.843 159.98C739.843 152.271 740.953 145.411 743.175 139.4C745.527 133.259 748.859 128.032 753.171 123.72C757.483 119.277 762.644 115.945 768.655 113.724C774.665 111.372 781.395 110.196 788.843 110.196C798.773 110.196 807.397 112.221 814.715 116.272C822.032 120.323 827.716 126.072 831.767 133.52C835.817 140.968 837.843 149.788 837.843 159.98C837.843 167.689 836.667 174.615 834.315 180.756C832.093 186.897 828.827 192.189 824.515 196.632C820.203 200.944 815.041 204.276 809.031 206.628C803.02 208.849 796.291 209.96 788.843 209.96ZM788.843 191.34C793.677 191.34 797.924 190.164 801.583 187.812C805.241 185.46 808.051 181.997 810.011 177.424C812.101 172.72 813.147 166.905 813.147 159.98C813.147 149.527 810.925 141.752 806.483 136.656C802.04 131.429 796.16 128.816 788.843 128.816C784.008 128.816 779.761 129.992 776.103 132.344C772.444 134.565 769.569 138.028 767.479 142.732C765.519 147.305 764.539 153.055 764.539 159.98C764.539 170.303 766.76 178.143 771.203 183.5C775.645 188.727 781.525 191.34 788.843 191.34ZM892.756 209.96C884.786 209.96 878.187 208.523 872.96 205.648C867.734 202.643 863.814 198.2 861.2 192.32C858.718 186.44 857.476 179.123 857.476 170.368V122.936C857.476 118.755 858.522 115.684 860.612 113.724C862.703 111.633 865.708 110.588 869.628 110.588C873.548 110.588 876.554 111.633 878.644 113.724C880.866 115.684 881.976 118.755 881.976 122.936V170.76C881.976 177.555 883.348 182.585 886.092 185.852C888.836 189.119 893.214 190.752 899.224 190.752C905.758 190.752 911.115 188.531 915.296 184.088C919.478 179.515 921.568 173.504 921.568 166.056V122.936C921.568 118.755 922.614 115.684 924.704 113.724C926.795 111.633 929.8 110.588 933.72 110.588C937.64 110.588 940.646 111.633 942.736 113.724C944.958 115.684 946.068 118.755 946.068 122.936V197.024C946.068 205.387 942.083 209.568 934.112 209.568C930.323 209.568 927.383 208.523 925.292 206.432C923.202 204.211 922.156 201.075 922.156 197.024V182.128L924.9 188.008C922.156 195.064 917.975 200.487 912.356 204.276C906.868 208.065 900.335 209.96 892.756 209.96ZM1015.47 209.96C1006.98 209.96 999.857 208.523 994.108 205.648C988.489 202.773 984.308 198.592 981.564 193.104C978.82 187.485 977.448 180.56 977.448 172.328V130.58H967.256C964.12 130.58 961.703 129.796 960.004 128.228C958.305 126.529 957.456 124.243 957.456 121.368C957.456 118.363 958.305 116.076 960.004 114.508C961.703 112.94 964.12 112.156 967.256 112.156H977.448V94.32C977.448 90.2693 978.493 87.1987 980.584 85.108C982.805 83.0173 985.876 81.972 989.796 81.972C993.716 81.972 996.721 83.0173 998.812 85.108C1000.9 87.1987 1001.95 90.2693 1001.95 94.32V112.156H1022.72C1025.86 112.156 1028.28 112.94 1029.98 114.508C1031.67 116.076 1032.52 118.363 1032.52 121.368C1032.52 124.243 1031.67 126.529 1029.98 128.228C1028.28 129.796 1025.86 130.58 1022.72 130.58H1001.95V170.956C1001.95 177.228 1003.32 181.932 1006.06 185.068C1008.81 188.204 1013.25 189.772 1019.39 189.772C1021.61 189.772 1023.57 189.576 1025.27 189.184C1026.97 188.792 1028.47 188.531 1029.78 188.4C1031.35 188.269 1032.65 188.792 1033.7 189.968C1034.75 191.013 1035.27 193.235 1035.27 196.632C1035.27 199.245 1034.81 201.597 1033.9 203.688C1033.11 205.648 1031.61 207.02 1029.39 207.804C1027.69 208.327 1025.47 208.784 1022.72 209.176C1019.98 209.699 1017.56 209.96 1015.47 209.96ZM1159.78 209.96C1150.24 209.96 1141.82 208.719 1134.5 206.236C1127.31 203.753 1121.24 200.095 1116.27 195.26C1111.3 190.295 1107.58 184.153 1105.1 176.836C1102.62 169.519 1101.37 161.025 1101.37 151.356V80.992C1101.37 76.68 1102.42 73.4787 1104.51 71.388C1106.73 69.2973 1109.87 68.252 1113.92 68.252C1117.97 68.252 1121.04 69.2973 1123.13 71.388C1125.35 73.4787 1126.46 76.68 1126.46 80.992V151.16C1126.46 163.573 1129.27 172.916 1134.89 179.188C1140.64 185.329 1148.94 188.4 1159.78 188.4C1170.63 188.4 1178.86 185.329 1184.48 179.188C1190.1 172.916 1192.91 163.573 1192.91 151.16V80.992C1192.91 76.68 1193.95 73.4787 1196.04 71.388C1198.26 69.2973 1201.4 68.252 1205.45 68.252C1209.37 68.252 1212.38 69.2973 1214.47 71.388C1216.69 73.4787 1217.8 76.68 1217.8 80.992V151.356C1217.8 164.161 1215.58 174.941 1211.13 183.696C1206.82 192.451 1200.35 199.049 1191.73 203.492C1183.11 207.804 1172.46 209.96 1159.78 209.96ZM1259.6 209.568C1255.55 209.568 1252.41 208.457 1250.19 206.236C1248.1 203.884 1247.06 200.683 1247.06 196.632V81.188C1247.06 77.0067 1248.1 73.8053 1250.19 71.584C1252.41 69.3627 1255.55 68.252 1259.6 68.252C1263.65 68.252 1266.72 69.3627 1268.81 71.584C1271.03 73.8053 1272.14 77.0067 1272.14 81.188V196.632C1272.14 200.683 1271.1 203.884 1269.01 206.236C1266.92 208.457 1263.78 209.568 1259.6 209.568Z" fill="#1E293B"/>
</svg>
